<svg xmlns="http://www.w3.org/2000/svg" xmlns:xlink="http://www.w3.org/1999/xlink" width="40" height="40" viewBox="0 0 40 40">
  <defs>
    <clipPath id="clip-path">
      <rect id="Rectangle_4741" data-name="Rectangle 4741" width="40" height="40" transform="translate(1298 107)" fill="#fff" stroke="#707070" stroke-width="1"/>
    </clipPath>
  </defs>
  <g id="Hobbies" transform="translate(-1298 -107)" clip-path="url(#clip-path)">
    <g id="Layer_x0020_1" transform="translate(1292.599 101.755)">
      <g id="_302469784" transform="translate(15.044 6.559)">
        <path id="_302470432" d="M24.148,12.352a3.267,3.267,0,0,1-6.515.492h0c0-.007,0-.014,0-.021a3.268,3.268,0,0,1,3.012-3.482h.021a3.268,3.268,0,0,1,3.482,3.013Z" transform="translate(-10.341 -4.098)"/>
        <path id="_302470168" d="M26.938,21.039c.046,3.682.026,7.361.007,11.04-.01,1.871-.02,3.743-.02,6.047a2.2,2.2,0,0,1-2.2,2.2h0a2.2,2.2,0,0,1-2.2-2.2V31.349h-.951v6.778a2.2,2.2,0,0,1-2.2,2.2h0a2.2,2.2,0,0,1-2.2-2.2c0-2.821.005-5.758.022-8.971q.022-4.062.077-8.117l-2.221,1.844a1.969,1.969,0,0,1-1.4.452,1.906,1.906,0,0,1-1.287-.632.4.4,0,0,1-.041-.046l-.006-.007h0a.4.4,0,0,1-.025-.033,1.942,1.942,0,0,1-.416-1.345,1.878,1.878,0,0,1,.645-1.3l.258.3-.258-.3.023-.019h0l.032-.024L18.4,15.1l.049-.04h0l.033-.023h0l.014-.012h0A6.074,6.074,0,0,1,22.11,14.1a6.026,6.026,0,0,1,3.622.934l.035.024h0l.03.025.018.015,5.852,4.859h0l.022.02h0L31.72,20a1.879,1.879,0,0,1,.619,1.274A1.942,1.942,0,0,1,31.9,22.65h0l-.023.025h0l-.024.025a1.906,1.906,0,0,1-1.287.632,1.969,1.969,0,0,1-1.4-.452l-2.222-1.845Z" transform="translate(-11.875 -2.826)"/>
        <path id="_302469232" d="M11.875,23.807a.4.4,0,0,0,.792,0V14.7a8.736,8.736,0,0,1,8.71-8.71H22.96a8.736,8.736,0,0,1,8.71,8.71v9.106a.4.4,0,0,0,.792,0V14.7a9.528,9.528,0,0,0-9.5-9.5H21.377a9.528,9.528,0,0,0-9.5,9.5v9.106Z" transform="translate(-11.875 -5.2)"/>
      </g>
      <rect id="Rectangle_4742" data-name="Rectangle 4742" width="50" height="50" transform="translate(0.401 0.245)" fill="none"/>
    </g>
  </g>
</svg>
