<svg xmlns="http://www.w3.org/2000/svg" xmlns:xlink="http://www.w3.org/1999/xlink" width="40" height="40" viewBox="0 0 40 40">
  <defs>
    <clipPath id="clip-path">
      <rect id="Rectangle_268" data-name="Rectangle 268" width="40" height="40" transform="translate(878 107)" fill="#fff" stroke="#707070" stroke-width="1"/>
    </clipPath>
  </defs>
  <g id="Knowledge_Icon" data-name="Knowledge Icon" transform="translate(-878 -107)" clip-path="url(#clip-path)">
    <g id="Science" transform="translate(877.998 107)">
      <path id="Path_1028" data-name="Path 1028" d="M35.094,21.24s-.492.483-1.242,1.125c8.278,8.4,4.568,12.229-6.894,8.336a39.7,39.7,0,0,0,1.025-5.885c3.334-2.342,7.327-5.9,7.736-6.669a2.5,2.5,0,1,0-1.267-1c-.383.342-.575.642-1.792,1.759a57.818,57.818,0,0,0-10.795-7.4c1.075-.517,2.334-1.067,3.551-1.517.642,2.626-.117,1.417,2.309,3.1C25.758-.642,18.056-4.6,13.8,6.194c.517.175,1.05.35,1.584.55,3.043-7.711,7.119-6.152,9.62,1.667a52.193,52.193,0,0,0-5,2.176C1.559,1.292-6.477,8.336,6.1,20.073c-.383.367-1.584,1.55-1.8,1.859a2.5,2.5,0,1,0,1.142,1.134,1.392,1.392,0,0,0,.133-.1C6.11,22.39,6.719,21.79,7.344,21.2,9.286,22.924,10,23.274,10,23.341c-.058-.934-.067-1.017-.092-2.192-.125-.125-.425-.325-1.3-1.092-5.818-4.885-10.653-12.1-2.976-12.1a24.257,24.257,0,0,1,7.152,1.4,37.253,37.253,0,0,0-.775,3.976c2.5-1.667,1.667-.475,2.359-3.376A59.527,59.527,0,0,1,26.4,16.255a46.682,46.682,0,0,1,.117,5.543c.584-.417,1.15-.834,1.667-1.259,0-.659,0-2.309-.058-3.051.95.667,2,1.5,3.259,2.584a59.1,59.1,0,0,1-11.379,7.636,63.151,63.151,0,0,1-6.669-3.968,47.515,47.515,0,0,1,0-7.311c1.375-.959,3.259-2.117,4.868-3.018-.875-.408-1.1-.533-1.834-.834A58.893,58.893,0,0,0,8.619,17.9c.834.775.834.759,1.259,1.125.083,0,0-.083,1.717-1.325a46.406,46.406,0,0,0,.834,11.479c.525-.175,1.05-.367,1.592-.575-.117-.675-.258-1.259-.442-2.676,1.617,1.059,3.468,2.134,4.576,2.718C11.087,31.993-.45,34.794,2.017,28.167a4.018,4.018,0,0,1-1.475-.792C-.917,31.01.659,33.86,5.652,33.86a25.416,25.416,0,0,0,7.636-1.475c3.193,10,9.9,10.328,13.212-.075C39.562,36.8,44.539,30.968,35.094,21.24ZM14.871,31.835a52.809,52.809,0,0,0,5.135-2.259c1,.5,2.326,1.117,3.334,1.55.142-.425.267-.875.4-1.392s.35,0-1.917-1.117c1.425-.759,3.1-1.759,4.31-2.551C24.574,38.012,18.6,43.53,14.871,31.835Z"/>
      <path id="Path_1029" data-name="Path 1029" d="M28.617,8.944c5-1.459,11.17-1.909,9.395,2.993a4.168,4.168,0,0,1,1.434.9c1.25-3.068.333-5.518-2.734-6.285-2.076-.525-5.085-.217-8.553.834C28.734,9.119,28.534,8.944,28.617,8.944Z"/>
    </g>
  </g>
</svg>
