<svg xmlns="http://www.w3.org/2000/svg" xmlns:xlink="http://www.w3.org/1999/xlink" width="40" height="40" viewBox="0 0 40 40">
  <defs>
    <clipPath id="clip-path">
      <rect id="Rectangle_4754" data-name="Rectangle 4754" width="40" height="40" transform="translate(1367 110)" stroke="#707070" stroke-width="1"/>
    </clipPath>
  </defs>
  <g id="Mask_Group_24" data-name="Mask Group 24" transform="translate(-1367 -110)" clip-path="url(#clip-path)">
    <g id="Layer_x0020_1" transform="translate(1362 105)">
      <rect id="Rectangle_4755" data-name="Rectangle 4755" width="50" height="50" fill="none"/>
      <g id="_300070040" transform="translate(12.694 6.25)">
        <path id="_300072056" d="M18.153,10.594H24.21a2.857,2.857,0,0,1,2.221,1.147,4.284,4.284,0,0,1,.893,2.668v2.419H15.038V14.409a4.284,4.284,0,0,1,.893-2.668,2.857,2.857,0,0,1,2.222-1.147Z" transform="translate(-8.934 -3.602)"/>
        <g id="Group_8956" data-name="Group 8956" transform="translate(7.525 27.128)">
          <path id="_300071528" d="M20.191,34.886,20.184,26.7h4.44c0,.979,0,1.968,0,3.087,0,1.414,0,3.033.006,5.1h0a2.034,2.034,0,0,1-1.339,1.983,2.493,2.493,0,0,1-1.777,0,2.026,2.026,0,0,1-1.326-1.985h0Z" transform="translate(-15.173 -26.702)"/>
          <path id="_300071984" d="M16.276,34.921l-.1-8.219h4.472l-.009,8.219h0a2.01,2.01,0,0,1-1.258,1.992,2.292,2.292,0,0,1-.877.161,2.453,2.453,0,0,1-.877-.171,2.067,2.067,0,0,1-1.354-1.982Z" transform="translate(-16.175 -26.702)"/>
        </g>
        <path id="_300071312" d="M20.6,5a3.214,3.214,0,0,1,2.29.957,3.277,3.277,0,0,1,0,4.612,3.217,3.217,0,0,1-4.58,0,3.277,3.277,0,0,1,0-4.612A3.215,3.215,0,0,1,20.6,5Z" transform="translate(-8.353 -5)"/>
        <path id="_300070856" d="M15.259,15.941H29.325a3.877,3.877,0,0,0-.108.423,3.566,3.566,0,0,0-.027,1.272,2.149,2.149,0,0,0,1.494,1.812,2.252,2.252,0,0,0,2.566-1.155,3.926,3.926,0,0,0,.5-1.271,3.577,3.577,0,0,0,.062-1.08,1.016,1.016,0,0,1,.953,1.027v10.6a1.014,1.014,0,0,1-.994,1.027H11.149a1.014,1.014,0,0,1-.994-1.027v-10.6a1.032,1.032,0,0,1,.6-.944,3.624,3.624,0,0,0,.07.983,3.926,3.926,0,0,0,.5,1.271,2.252,2.252,0,0,0,2.566,1.155,2.149,2.149,0,0,0,1.494-1.812,3.566,3.566,0,0,0-.026-1.272,3.892,3.892,0,0,0-.1-.409Z" transform="translate(-10.155 -2.265)" fill-rule="evenodd"/>
        <path id="_300071120" d="M28.827,18.265a1.665,1.665,0,0,1-1.892.9,1.561,1.561,0,0,1-1.073-1.339,2.976,2.976,0,0,1,.024-1.057,3.153,3.153,0,0,1,.38-1A1.75,1.75,0,0,1,27.91,14.8a1.449,1.449,0,0,1,1.358,1.256,2.831,2.831,0,0,1-.017,1.132,3.34,3.34,0,0,1-.424,1.076Z" transform="translate(-6.238 -2.551)"/>
        <path id="_300070472" d="M11.6,18.254a1.665,1.665,0,0,0,1.892.9,1.561,1.561,0,0,0,1.073-1.339,2.976,2.976,0,0,0-.024-1.057,3.153,3.153,0,0,0-.38-1,1.75,1.75,0,0,0-1.645-.963,1.449,1.449,0,0,0-1.358,1.256,2.831,2.831,0,0,0,.017,1.132,3.339,3.339,0,0,0,.424,1.076Z" transform="translate(-9.917 -2.554)"/>
      </g>
    </g>
  </g>
</svg>
