<svg xmlns="http://www.w3.org/2000/svg" xmlns:xlink="http://www.w3.org/1999/xlink" width="40" height="40" viewBox="0 0 40 40">
  <defs>
    <clipPath id="clip-path">
      <rect id="Rectangle_286" data-name="Rectangle 286" width="40" height="40" transform="translate(1178 107)" stroke="#000" stroke-width="1"/>
    </clipPath>
  </defs>
  <g id="Search_profession_Icon" data-name="Search profession Icon" transform="translate(-1178 -107)" clip-path="url(#clip-path)">
    <g id="Layer_x0020_1" transform="translate(1173.324 102.324)">
      <path id="Path_1045" data-name="Path 1045" d="M29.289,13.735a15.312,15.312,0,0,1,4.9,1.957,3.394,3.394,0,0,1,1.772,2.827v.009l-.436,6.99a1.889,1.889,0,0,1-2.087,1.939,2.151,2.151,0,0,1-.832-.255l-.009,0,.268-3.332-1.226-.94.246-3.155-1.2-.351v2.77L21.4,15.075c.559-.313,1.125-.61,1.671-.856a8.856,8.856,0,0,1,2.954-.718,11.174,11.174,0,0,1,3.264.235Zm1.4,12.379V37.832a2.083,2.083,0,0,1-1.327,2.035,2.414,2.414,0,0,1-1.786,0,2.083,2.083,0,0,1-1.327-2.035V27.753H24.833V37.832a2.083,2.083,0,0,1-1.327,2.034,2.414,2.414,0,0,1-1.786,0,2.083,2.083,0,0,1-1.327-2.034h0v-17l-1.723.97q-.079.044-.167.086a2.09,2.09,0,0,1-1.694.085,2.314,2.314,0,0,1-1.155-1.027c-.026-.046-.052-.1-.078-.152h0l-1.06-2.222a8.226,8.226,0,0,0,4.193-1.541l11.976,9.083Z" transform="translate(3.665 3.401)"/>
      <path id="Path_1046" data-name="Path 1046" d="M24.674,6.608a4.133,4.133,0,1,1-2.922,1.21,4.12,4.12,0,0,1,2.922-1.21Z" transform="translate(5.184 1.671)"/>
      <path id="Path_1047" data-name="Path 1047" d="M21.773,16.992l12.161,9.319-.185,2.3L20.381,18.468a7.665,7.665,0,1,1,1.392-1.476ZM19.585,8.474a5.714,5.714,0,1,0,1.674,4.04,5.695,5.695,0,0,0-1.674-4.04Z" transform="translate(1.99 1.226)" fill-rule="evenodd"/>
      <rect id="Rectangle_287" data-name="Rectangle 287" width="51" height="51" transform="translate(-0.324 -0.324)" fill="none"/>
    </g>
  </g>
</svg>
