<svg xmlns="http://www.w3.org/2000/svg" xmlns:xlink="http://www.w3.org/1999/xlink" width="269" height="159" viewBox="0 0 269 159"><defs><style>.a,.h{fill:#fff;}.a{stroke:#707070;}.b{clip-path:url(#a);}.c{fill:#3ad29f;}.d{fill:#e0e0e0;}.e{opacity:0.3;}.f{opacity:0.5;}.g{fill:url(#b);}.i{opacity:0.05;}.j{fill:#ff8c4a;}.k{fill:#ffffa5;}.l{opacity:0.1;}.m{fill:#4d8af0;}.n{fill:#030b44;}</style><clipPath id="a"><rect class="a" width="269" height="159" transform="translate(35 49)"/></clipPath><linearGradient id="b" x1="0.5" y1="1" x2="0.5" gradientUnits="objectBoundingBox"><stop offset="0" stop-color="gray" stop-opacity="0.251"/><stop offset="0.54" stop-color="gray" stop-opacity="0.122"/><stop offset="1" stop-color="gray" stop-opacity="0.102"/></linearGradient></defs><g class="b" transform="translate(-35 -49)"><g transform="translate(64.219 49)"><path class="c" d="M128.2,91.733l2.257,7.817,2.257,7.817h-9.029l2.257-7.817Z"/><path class="c" d="M132.644,90.674l2.255,7.817,2.257,7.819h-9.027l2.257-7.819Z"/><path class="c" d="M137.086,90.674l2.257,7.817,2.257,7.819h-9.029l2.257-7.819Z"/><path class="c" d="M171.406,95.447l2.257,7.817,2.257,7.819h-9.029l2.257-7.819Z"/><path class="c" d="M27.035,87.756,30.9,94.916l3.865,7.161-4.409.958-4.411.96.544-8.121Z"/><path class="d" d="M0,158.971l8.543-40.243,6.3-8.318,6.3-10.792,11.691-6.97L41.592,87.7l3.6,10.792L52.1,103.12l4.33,6.389,6.745-2.248,8.543-6.97,6.52-1.8,9.218-5.845L96,94.9l8.768-3.148,5.845-4.047,5.621,6.745,3.148,8.768.674,3.148h17.087l5.621-6.07,8.768-1.8h8.543l5.845,1.8,10.342,2.923,22.932,55.756Z"/><g class="e"><rect class="d" width="34.704" height="6.772" rx="3.386" transform="translate(32.739 40.194)"/><rect class="d" width="34.704" height="6.772" rx="3.386" transform="translate(24.274 46.966)"/><rect class="d" width="34.704" height="6.772" rx="3.386" transform="translate(32.739 53.737)"/></g><g class="f"><path class="g" d="M96,151.172H50.81L53.456,32.246h39.9Z"/></g><path class="h" d="M95.119,151.172H51.739L54.277,32.246h38.3Z"/><g class="i"><path d="M62.108,151.172H51.739L54.277,32.246h5.29Z"/></g><path class="j" d="M45.178,106.31H101.89a8.042,8.042,0,0,1-8.042,8.042H53.22a8.042,8.042,0,0,1-8.042-8.042Z"/><path class="j" d="M45.178,66.323H101.89a8.042,8.042,0,0,1-8.042,8.042H53.22a8.042,8.042,0,0,1-8.042-8.042Z"/><circle class="k" cx="10.369" cy="10.369" r="10.369" transform="translate(63.164 38.913)"/><rect class="l" width="41.687" height="0.634" transform="translate(52.584 114.35)"/><rect class="l" width="40.205" height="0.423" transform="translate(53.22 74.356)"/><path class="d" d="M114.743,172.842H101.411V154.537a6.666,6.666,0,0,1,6.666-6.666h0a6.668,6.668,0,0,1,6.666,6.666Z" transform="translate(-29.782 -21.671)"/><path class="m" d="M228.376,180.671H29.886s12.815-29.452,32.24-34.663a22.071,22.071,0,0,1,8.6-.609,18.612,18.612,0,0,1,11.934,6.693c6.367,7.7,25.866,24.472,64.88,5.3,0,0,13.966-13.966,36.4,2.538a43.07,43.07,0,0,0,4.272,1.844c6.882,2.6,20.648,6.225,30.434-1.421C232.187,149.775,228.376,180.671,228.376,180.671Z" transform="translate(-29.782 -21.671)"/><g class="e"><rect class="d" width="34.704" height="6.772" rx="3.386" transform="translate(125.366 8.943)"/><rect class="d" width="34.704" height="6.772" rx="3.386" transform="translate(116.902 15.715)"/><rect class="d" width="34.704" height="6.772" rx="3.386" transform="translate(125.366 22.487)"/></g><g class="e"><rect class="d" width="34.704" height="6.772" rx="3.386" transform="translate(154.144 56.157)"/><rect class="d" width="34.704" height="6.772" rx="3.386" transform="translate(145.679 62.928)"/><rect class="d" width="34.704" height="6.772" rx="3.386" transform="translate(154.144 69.7)"/></g><g class="e"><path class="n" d="M172.512,79.945h7.406S177.128,84.882,172.512,79.945Z" transform="translate(-29.782 -21.671)"/><path class="n" d="M172.959,82.045l4.856-5.591S179.713,81.8,172.959,82.045Z" transform="translate(-29.782 -21.671)"/></g><g class="e"><path class="n" d="M146.061,95.393h7.406S150.677,100.33,146.061,95.393Z" transform="translate(-29.782 -21.671)"/><path class="n" d="M146.509,97.493l4.854-5.591S153.262,97.245,146.509,97.493Z" transform="translate(-29.782 -21.671)"/></g><g class="e"><path class="n" d="M136.482,37.411h7.943S141.432,42.717,136.482,37.411Z" transform="translate(-29.782 -21.671)"/><path class="n" d="M136.961,39.666l5.209-6S144.207,39.4,136.961,39.666Z" transform="translate(-29.782 -21.671)"/></g><g class="i"><path d="M81.883,135.989c.225.02.461.031.695.031h8.094l-.171-8.04h-8.44Z" transform="translate(-29.782 -21.671)"/></g><g class="i"><path d="M60.3,66.316H53.551l-.173,8.04h7.089Z"/></g><path class="m" d="M240.006,125.128a.337.337,0,1,0-.337-.337A.337.337,0,0,0,240.006,125.128Z" transform="translate(-29.782 -21.671)"/><path class="j" d="M131.778,45.549c0,7.912-12.79,14.324-28.568,14.324S74.642,53.461,74.642,45.549s12.79-23.879,28.568-23.879S131.778,37.64,131.778,45.549Z" transform="translate(-29.782 -21.671)"/><g class="i"><path d="M74.475,45.549c0,7.912,12.79,14.324,28.568,14.324v-38.2C87.265,21.671,74.475,37.64,74.475,45.549Z" transform="translate(-29.782 -21.671)"/></g></g></g></svg>