<svg xmlns="http://www.w3.org/2000/svg" xmlns:xlink="http://www.w3.org/1999/xlink" width="40" height="40" viewBox="0 0 40 40">
  <defs>
    <clipPath id="clip-path">
      <rect id="Rectangle_4739" data-name="Rectangle 4739" width="40" height="40" transform="translate(1238 107)" fill="#fff" stroke="#707070" stroke-width="1"/>
    </clipPath>
  </defs>
  <g id="Interests" transform="translate(-1238 -107)" clip-path="url(#clip-path)">
    <g id="Layer_x0020_1" transform="translate(1233.15 102.15)">
      <rect id="Rectangle_4740" data-name="Rectangle 4740" width="50" height="50" transform="translate(-0.15 -0.15)" fill="none"/>
      <g id="_203451464" transform="translate(12.774 6.256)">
        <path id="_203435792" d="M27.647,22.547a.381.381,0,0,0-.571-.331.441.441,0,0,0-.33-.024,13.067,13.067,0,0,0-1.855-.485,4.058,4.058,0,0,0,.194.5l.228.5-.55.039a5.075,5.075,0,0,0-3.148,1.433,22.741,22.741,0,0,1-2.306,1.626l-.182.111-.19-.1q-.176-.09-.339-.181v10.3a2.275,2.275,0,0,0,1.259,2.194,2.088,2.088,0,0,0,1.754,0,2.275,2.275,0,0,0,1.259-2.194v-10.2h.507v10.2a2.275,2.275,0,0,0,1.259,2.194,2.088,2.088,0,0,0,1.754,0,2.275,2.275,0,0,0,1.259-2.194h0V22.547Z" transform="translate(-8.113 -0.818)"/>
        <path id="_203435696" d="M12.306,14.741a2.316,2.316,0,0,0-1.9,1.34,2.234,2.234,0,0,0-.192.94,2.189,2.189,0,0,0,.222.934A2.286,2.286,0,0,0,12.6,19.182l.418,0-.711-4.443Z" transform="translate(-10.213 -2.561)"/>
        <path id="_203436008" d="M23.048,5a3.411,3.411,0,1,1-2.412,1,3.4,3.4,0,0,1,2.412-1Z" transform="translate(-7.853 -5)"/>
        <path id="_203435408" d="M15.126,15.081a16.711,16.711,0,0,0-2.707-.536l1.67,10.439a6.676,6.676,0,0,1,5.144,1.4c.424.283.875.585,1.411.874A22.529,22.529,0,0,0,22.695,25.8a5.9,5.9,0,0,1,3.05-1.539,2.338,2.338,0,0,1-.112-1.3,3.775,3.775,0,0,1,.822-1.49l-1.2-8.612a12.472,12.472,0,0,0-3.245,1.477A15.616,15.616,0,0,0,19.4,16.484l-.187.187-.241-.109a27.971,27.971,0,0,0-3.845-1.481Z" transform="translate(-9.66 -3.033)"/>
        <path id="_203436056" d="M18.477,27.8l.177,1.593.38-.042-.38.042a.383.383,0,0,0,.548.3c3.119-1.342,7.464-2.111,9.531-4.886L32.691,19.5a.382.382,0,0,0,.066-.107l-.354-.146.353.145a2.352,2.352,0,0,0,.2-1.61,6.268,6.268,0,0,0-1.425-2.323l-3.2-3.8c-.01-.015-.078-.1-.092-.093a4.828,4.828,0,0,0-2.225-.622c-.867-.084-1.775-.087-2.474-.087a6.088,6.088,0,0,0-2.931.64,6.568,6.568,0,0,0-2.117,1.9.394.394,0,0,0-.032.042l-1.531,2.3a.381.381,0,0,0-.06.266c.371.156.739.318,1.1.483a16.067,16.067,0,0,1,2.61-2.134,13.1,13.1,0,0,1,3.393-1.544l.639-.188,1.219,8.733,2.1-2.868-1.442-1.64a.382.382,0,0,1,.574-.505L28.7,18.2a.383.383,0,0,1,.033.491l-.309-.226.308.226c-.3.4-3.327,4.781-3.64,4.838a1.768,1.768,0,0,0,.081,1.047l.222.653-.683.1a5.421,5.421,0,0,0-2.78,1.424,24.444,24.444,0,0,1-2.1,1.5l-.283.176-.293-.158c-.268-.144-.526-.3-.781-.46Z" transform="translate(-8.547 -3.533)"/>
      </g>
    </g>
  </g>
</svg>
