<?xml version="1.0" encoding="utf-8"?>
<!-- Generator: Adobe Illustrator 21.0.2, SVG Export Plug-In . SVG Version: 6.00 Build 0)  -->
<svg version="1.1" id="Layer_1" xmlns="http://www.w3.org/2000/svg" xmlns:xlink="http://www.w3.org/1999/xlink" x="0px" y="0px"
	 viewBox="0 0 1000 1000" style="enable-background:new 0 0 1000 1000;" xml:space="preserve">
<style type="text/css">
	.st0{fill:#FFDCA6;}
	.st1{fill:#EDC68A;}
	.st2{fill:#E0E0E0;}
	.st3{fill:#FFFFFF;}
	.st4{fill:#5E6296;}
	.st5{fill:#63A5FF;}
	.st6{fill:#4D98FF;}
	.st7{fill:#EDBD74;}
	.st8{fill:#FFE5BD;}
	.st9{fill:#FF7661;}
	.st10{fill:#DE452D;}
	.st11{fill:#D64029;}
	.st12{fill:#233940;}
</style>
<g>
	<g>
		<path class="st0" d="M614.2,112.6c0,0-117.9-26.8-192.5,28.7c-74.6,55.4-102.3,159.6-185.4,242.8
			C153.1,467.2,96.7,579.5,94.8,627.3C92.9,675.1,720,410.8,720,410.8S695.8,122.1,614.2,112.6z"/>
		<path class="st1" d="M805.2,293.5l-163.6-4.9c-19.8-0.6-34.7-18-32.3-37.7l10.9-88.1c2.1-16.9,16.6-29.6,33.7-29.4l0,0
			c0,0,172.2,6.7,172.2,6.8c1.4,22.1,9.8,75.9,13.5,116.6C841.4,277,825.3,294.1,805.2,293.5z"/>
		<path class="st0" d="M836.9,224.9c0.4,4.9-2.4,9.4-7,11.2c-7.8,3-14.7,4.6-24.2,4.3l-80.7-2.3c-49.6-1.4-85.3-48.1-73.6-96.3
			c0,0,0-0.1,0-0.1c1.2-4.9,5.7-8.2,10.7-8.2l159,1.8c5.6,0.1,10.3,4.4,10.8,10C834.2,171.8,834.5,198.3,836.9,224.9z"/>
		<path class="st0" d="M813.4,115.4L813.4,115.4c-4.6,0-8.4,3.7-8.4,8.4v162c0,4.6,3.7,8.4,8.4,8.4l0,0c4.6,0,8.4-3.7,8.4-8.4v-162
			C821.8,119.2,818,115.4,813.4,115.4z"/>
		<path class="st2" d="M804.3,115.4L804.3,115.4c-4.6,0-8.4,3.7-8.4,8.4v162c0,4.6,3.7,8.4,8.4,8.4l0,0c4.6,0,8.4-3.7,8.4-8.4v-162
			C812.7,119.2,808.9,115.4,804.3,115.4z"/>
		<path class="st3" d="M797.6,115.4L797.6,115.4c-4.6,0-8.4,3.7-8.4,8.4v162c0,4.6,3.7,8.4,8.4,8.4l0,0c4.6,0,8.4-3.7,8.4-8.4v-162
			C806,119.2,802.3,115.4,797.6,115.4z"/>
		<path class="st4" d="M819.4,740.6c-62.6,117-181.6,199.4-320.6,210.9c-11.1,0.9-22.2,1.4-33.5,1.4c-138,0-283.3-80.2-345.6-186.5
			c-16.2-27.6-26.8-56.9-30.2-87.1c-0.1-0.9-0.2-1.8-0.3-2.8c-0.9-9.4-1.2-19-0.6-28.6c0.7-14.1,3.2-28.3,7.4-42.5
			c4.8-16.4,12.1-32.9,21.9-49.2c46.7-77.3,119.5-127.5,197.4-169.7C415.3,332.2,538.2,282.3,653.4,278c15-0.6,30.2-0.3,44.5,4.1
			c23.2,7.1,35.4,27.1,50.9,44.1c18.4,20.2,35,42.2,49.1,65.6c29,48.1,47.6,103,47.6,159.6C845.7,619.8,849.6,684.2,819.4,740.6z"/>
		<path class="st0" d="M662.4,115.4L662.4,115.4c-4.6,0-8.4,3.7-8.4,8.4v162c0,4.6,3.7,8.4,8.4,8.4l0,0c4.6,0,8.4-3.7,8.4-8.4v-162
			C670.7,119.2,667,115.4,662.4,115.4z"/>
		<circle class="st0" cx="555.6" cy="649.8" r="119.5"/>
		<path class="st2" d="M653.3,115.4L653.3,115.4c-4.6,0-8.4,3.7-8.4,8.4v162c0,4.6,3.7,8.4,8.4,8.4l0,0c4.6,0,8.4-3.7,8.4-8.4v-162
			C661.7,119.2,657.9,115.4,653.3,115.4z"/>
		<path class="st5" d="M719.5,647.9c-18.1,130-104.8,244.9-220.7,303.5c-11.1,0.9-22.2,1.4-33.5,1.4c-138,0-283.3-80.2-345.6-186.5
			c-16.2-27.6-26.8-56.9-30.2-87.1c0.1-0.9,0-1.9-0.3-2.8c-0.9-9.4-1.2-19-0.6-28.6H719.5z"/>
		<path class="st6" d="M719.5,647.9c-18.1,130-104.8,244.9-220.7,303.5c-11.1,0.9-22.2,1.4-33.5,1.4c-138,0-283.3-80.2-345.6-186.5
			c52.7-36.8,112.4-63.4,173.1-84.1c108.1-36.9,217.1-34.3,329.6-34.3C654.7,647.9,687.1,647.9,719.5,647.9z"/>
		<path class="st1" d="M863.1,605.8C845.4,737.3,756.4,855,637.8,913.4c-12.4,6.1-25.2,11.6-38.2,16.4
			c-18.1,6.6-36.6,11.9-55.7,15.7c-11.5,2.3-23.2,4.1-35.1,5.4c-14.3,1.5-28.8,2.4-43.5,2.4c-67.3,0-131.2-15.3-187.3-43.5
			c-41.1-20.6-78-48.2-109-81.8c5-9.7,10.7-18.9,17-27.7c81.7-115,264.6-164.2,367.8-183.5c44.8-8.3,74.5-11.1,74.5-11.1H863.1z"/>
		<path class="st7" d="M637.8,666.8v246.7c-12.4,6.1-25.2,11.6-38.2,16.4c-18.1,6.6-36.6,11.9-55.7,15.7
			c-11.5,2.3-23.2,4.1-35.1,5.4c-14.3,1.5-28.8,2.4-43.5,2.4c-67.3,0-131.2-15.3-187.3-43.5c-41.1-20.6-78-48.2-109-81.8
			c5-9.7,10.7-18.9,17-27.7c25.8,0.6,51.9,6.9,77.4,9.9c19.4,2.3,40.9,2.2,59.9-3.5c14.9-4.5,27.1-16.7,39.8-25.3
			c15.5-10.4,31.4-20.2,47.7-29.2c65.3-36,137.8-60.3,209.4-80.1C625.9,670.5,632,668.5,637.8,666.8z"/>
		<path class="st8" d="M599.5,714.6v215.2c-19.1,6.6-36.6,11.9-55.7,15.7c-11.5,2.3-23.2,4.1-35.1,5.4c-14.3,1.5-28.8,2.4-43.5,2.4
			c-67.3,0-131.2-15.3-187.3-43.5C352.4,809,464.5,752,587.1,718.4C591.3,717.2,595.7,715.8,599.5,714.6z"/>
		<g>
			<path class="st9" d="M860.2,422.6l-3.9-37.4l-3.8-36.9c-2.6-24.8-23.4-43.6-48.3-43.6h-166c-24.3,0-39.7-13.1-43,11l-14.1,97.4
				l-0.1,0.5l-0.4,2.8l-16.1,120.1l-2.6,19l-6.8,50.3l-1.5,11.1L538.5,730l-0.4,3L517.6,885l-8.8,65.7l0,0.2l-0.4,3.2
				c0.9-1,2.1-1.6,3.7-1.9c10.7-1.9,21.3-4.1,31.8-6.7c1.4-0.3,2.7-0.7,4.1-1.1c66.2-17.1,128.1-49,179.6-92.8c3.5-3,7-6,10.4-9.1
				c78.6-71.4,132.3-174.5,132.7-281.9c0-0.4,0-0.9,0-1.3v-1c0.1-6.7,0.6-13.3,1.5-19.7L860.2,422.6z"/>
		</g>
		<path class="st3" d="M871,558.3v1c0,1.7,0,3.5-0.1,5.2c0,0.4,0,0.8,0,1.2c0,1,0,1.9-0.1,2.9c0,0.4,0,0.7,0,1.1c0,0.3,0,0.5,0,0.8
			c0,1.2-0.1,2.4-0.2,3.6c-2.8,71.2-25.7,140.4-64.2,199.5c-1.2,1.9-11.1,7.7-12.9,9.1c-0.8,0.6-1.6,1.2-2.4,1.8l0,0
			c-21.9,16.8-43.1,30.8-63.5,42.4c-110.3,63.1-195.1,58.5-210,58.1c-1.5,0-2.2-0.1-2.2-0.1l22.9-154.9c0,0,0.2,0,0.3,0
			c9.4-2.5,18.6-5.1,27.5-7.8l-2,26.9c-1.3,16.8,12.1,31.2,29,31.1l41.8-0.1c2.5,0,5.2-0.3,7.5-0.9c12.4-3.2,22.1-14.6,22.1-28
			v-64.5c22.7-9.8,43.8-19.9,63.1-30.1C795.5,620.6,842.3,583.5,871,558.3z"/>
		<path class="st10" d="M736.9,305.7c-26.8,22.9-58.8,49.6-97.7,74.6c-5.7-7.8-9.1-17.4-9.1-27.8c0-12.9,5.2-24.6,13.7-33.1
			c8.5-8.5,20.2-13.7,33.1-13.7H736.9z"/>
		<path class="st3" d="M856.4,385.2c-26,36.9-63,67.7-102,94.5c-8.6,5.9-17.6,11.6-26.8,17.1c-50.1,29.6-107.9,51.6-165.7,58.8
			L581,413.6c0,0,0.1,0,0.1,0c21-10.6,40.3-21.8,58.1-33.3c38.9-24.9,70.8-51.7,97.7-74.6h67.3c24.9,0,45.8,18.4,48.3,43.1
			L856.4,385.2z"/>
		<path class="st2" d="M727.6,446.2c0-25.9-21-46.8-46.8-46.8h-3.8c-15.5,0-29.2-7.5-37.7-19.1c38.9-24.9,70.8-51.7,97.7-74.6h67.3
			c24.9,0,39.2-46,44.3,1l7.8,78.6c-26,36.9-63,67.7-102,94.5c-8.6,5.9-17.2,11.6-26.8,17.1V446.2z"/>
		<path class="st2" d="M882.5,298c0,12.7-10.3,22.9-22.9,22.9H582.3c-6.3,0-12.1-2.6-16.2-6.7c-2.8-2.8-5-6.5-6-10.5
			c-0.5-1.8-0.7-3.7-0.7-5.7c0-3,0.6-5.9,1.7-8.6c3.4-8.4,11.6-14.3,21.3-14.3h277.2c6.3,0,12.1,2.6,16.2,6.7c2.2,2.2,3.9,4.7,5,7.6
			C881.9,292.1,882.5,295,882.5,298z"/>
		<path class="st10" d="M872.4,538.6c-0.9,6.4-1.4,13-1.4,19.7c-28.4,25.2-74.6,62.3-143.4,98.2V496.7c9.6-5.5,18.1-11.2,26.8-17.1
			c39-26.8,76-57.6,102-94.5l-3.8-36.4l3.9,36.6L872.4,538.6z"/>
		<path class="st10" d="M791.2,784.5c-15.9,21-33.7,40.4-53,58c-3.4,3.1-6.7,6.1-10.5,9.1v-24.7
			C748.6,815.3,769.3,801.3,791.2,784.5z"/>
		<path class="st2" d="M871,558.3v1c0,1.7,0,3.5-0.1,5.2c0,0.4,0,0.8,0,1.2c0,1,0,1.9-0.1,2.9c0,0.4,0,0.7,0,1.1c0,0.3,0,0.5,0,0.8
			c0,1.2-0.1,2.4-0.2,3.6c-3.4,76.2-33.4,149.6-79.5,210.4l0,0c-21.9,16.8-42.5,30.8-63.5,42.4V656.5
			C796.4,620.6,842.3,583.5,871,558.3z"/>
		<path class="st0" d="M737.9,115.4L737.9,115.4c-4.6,0-8.4,3.7-8.4,8.4v162c0,4.6,3.7,8.4,8.4,8.4l0,0c4.6,0,8.4-3.7,8.4-8.4v-162
			C746.3,119.2,742.5,115.4,737.9,115.4z"/>
		<path class="st2" d="M728.8,115.4L728.8,115.4c-4.6,0-8.4,3.7-8.4,8.4v162c0,4.6,3.7,8.4,8.4,8.4l0,0c4.6,0,8.4-3.7,8.4-8.4v-162
			C737.2,119.2,733.4,115.4,728.8,115.4z"/>
		<path class="st3" d="M721.2,115.4L721.2,115.4c-4.6,0-8.4,3.7-8.4,8.4v162c0,4.6,3.7,8.4,8.4,8.4l0,0c4.6,0,8.4-3.7,8.4-8.4v-162
			C729.5,119.2,725.8,115.4,721.2,115.4z"/>
		<path class="st3" d="M858.8,281.9c4.8,4.1,4.5,11.5-0.4,15.5c-4.8,4-11.4,6.4-18.7,6.4H560.1c-0.5-1.8-0.8-3.7-0.8-5.7
			c0-3,0.6-5.9,1.7-8.6c3.6-8.4,12.2-14.3,22.3-14.3h256.3C847.2,275.1,853.9,277.6,858.8,281.9
			C858.8,281.8,858.8,281.8,858.8,281.9z"/>
		<path class="st2" d="M664.5,686.7v64.5c0,13.5-9.6,24.8-22.1,28c-2.3,0.6-5,0.9-7.5,0.9l-41.8,0.1c-16.9,0.1-30.3-14.3-29-31.1
			l2-26.9C602,711.5,634.7,699.5,664.5,686.7z"/>
		<path class="st11" d="M664.5,637.4v49.3c-29.8,12.8-62.5,24.8-98.4,35.6l6.4-86.6c1.1-15,13.5-26.6,28.5-26.8l11.4-0.2l22.3-0.3
			C650.8,608.2,664.5,621.2,664.5,637.4z"/>
		<path class="st0" d="M664.5,637.4v113.8c0,13.5-8.2,24.8-18.8,28l-29,0.1c-14.4,0.1-25.8-14.2-24.8-31l2-32.1l3.5-55.4l1.6-25.6
			c0.9-13.7,9.7-24.5,21-26.4l19-0.3C652.8,608.2,664.5,621.2,664.5,637.4z"/>
		<path class="st3" d="M642.8,115.4L642.8,115.4c-4.6,0-8.4,3.7-8.4,8.4v162c0,4.6,3.7,8.4,8.4,8.4l0,0c4.6,0,8.4-3.7,8.4-8.4v-162
			C651.1,119.2,647.4,115.4,642.8,115.4z"/>
		<path class="st2" d="M830.4,135.5H627c-13.1,0-22.3-11.8-20.4-23.9c0.3-1.8,0.8-3.7,1.7-5.5c14.5-31.4,49.6-76.7,130.8-76.7
			c23.1,0,41.5,3.9,56.2,10.2c38,16.3,51,48.7,55.4,71.3C853.2,123.7,843.4,135.5,830.4,135.5z"/>
		<path class="st3" d="M797.3,112.6H606.6c0.3-1.9,0.8-4.2,1.7-6c11.1-23.9,34-56,80.2-70c14.5-4.4,31.2-7,50.6-7
			c1.8,0,3.5,0,5.2,0.1c20.7,0.5,37.5,4.2,51,10c13.4,15.4,19.5,33.7,22.3,47.8C820,100.3,810.3,112.6,797.3,112.6z"/>
		<path class="st10" d="M787.9,112.6c-0.5,11-2,19.7-2.6,22.9H655c0-8.1,1-15.4,2.1-22.9H787.9z"/>
		<path class="st9" d="M787.9,112.6H657c6.2-42.1,24.1-67.3,31.4-75.9c0.8-1,1.5-1.7,2-2.3c17.6-5.1,35.9-6.6,53.8-4.6
			c6.3,0.7,12.5,1.8,18.7,3.3C785.7,55.6,788.9,89.6,787.9,112.6z"/>
		<path class="st7" d="M599.5,714.6c22.5-6.6,44.1-14.3,65-22.9v59.5c0,13.5-8.2,24.8-18.8,28l-29,0.1c-14.4,0.1-25.8-14.2-24.8-31
			l2-32.1C595.8,715.7,597.6,715.1,599.5,714.6z"/>
		<path class="st2" d="M661.6,774.5H568c-2.1,0-3.9,1.7-3.9,3.9v13.3c0,2.1,1.7,3.9,3.9,3.9h93.6c2.1,0,3.9-1.7,3.9-3.9v-13.3
			C665.5,776.3,663.7,774.5,661.6,774.5z"/>
		<path class="st3" d="M650.4,774.5h-86.5c-4.1,0-7.4,3.3-7.4,7.4l0,0c0,4.1,3.3,7.4,7.4,7.4h86.5c4.1,0,7.4-3.3,7.4-7.4l0,0
			C657.8,777.9,654.5,774.5,650.4,774.5z"/>
	</g>
	<g>
		<path class="st12" d="M606,89.9L637,65.2c5.1-4.1,10.3-8.3,15.8-12.1c5.5-3.8,11.2-7.3,17.2-10.5c11.9-6.3,24.6-11.1,37.8-14.1
			c13.2-3,26.8-4.1,40.3-3.2c6.8,0.4,13.5,1.4,20.1,2.8c6.6,1.4,13.1,3.2,19.5,5.5c6.4,2.3,12.7,5.1,18.6,8.7
			c5.8,3.6,11.4,7.5,16.5,12c10.3,8.9,19.3,19.5,25.8,31.7c3.4,6.2,5.6,13.2,6.5,20.2c0.5,3.6,0.6,7.2,0.2,10.9
			c-0.4,3.7-1.3,7.5-3.2,11.2c-1.9,3.6-5,6.9-8.7,8.9c-3.7,2.1-7.8,2.8-11.6,2.9l-19.9,0.1l-39.5,0.1l-79,0.3l-19.8,0.1
			c-6.1,0-12.1,0.9-17.8,2.8c-11.4,3.6-21.1,11.5-27.8,21.5c-3.4,5-6.2,10.6-8.3,16.4c-2.2,5.8-3.7,11.8-4.8,18.1
			c-2.2,12.5-3,25.7-5.1,39.1c-1.1,6.7-2.5,13.5-4.8,20.2c-1.2,3.3-2.5,6.6-4.1,9.8l-0.6,1.2c-0.2,0.4-0.5,0.9-0.8,1.3
			c-0.5,0.9-1.1,1.8-1.8,2.7l-1.1,1.3c-0.4,0.4-0.8,0.8-1.2,1.2c-0.8,0.8-1.7,1.4-2.6,2.1c-3.7,2.5-7.6,3.5-10.9,4.4
			c-3.3,0.8-6.1,1.6-8.2,2.7c-4.1,2.1-6.7,6.2-6.7,10.9v4.9l0,2.5c0,0.8,0,1.7,0,2.2c0.1,2.2,0.9,4.4,2.1,6.2
			c1.3,1.8,3.1,3.3,5.1,4.1c1,0.4,2.1,0.7,3.2,0.9c0.3,0.1,0.6,0,0.8,0.1c0.3,0,0.5,0,1,0l2.5,0l39.5,0.2l158.1,0.8l79,0.5
			c5.6,0.1,11.1-1.9,15.1-5.7c4-3.8,6.4-9.1,6.3-14.6c0-5.5-2.5-10.9-6.6-14.6c-2-1.9-4.5-3.3-7.1-4.2c-1.3-0.4-2.7-0.7-4-0.9
			c-0.7-0.1-1.4-0.1-2.1-0.1c-0.7,0-1.6,0-2.4,0l-9.9-0.1l-4.9,0l-2.5,0l-2.8-0.2c-7.4-0.7-14.5-4.1-19.7-9.4
			c-5.2-5.3-8.4-12.5-9-19.8l-0.1-2.7l0-2.5l0-4.9l0.1-9.9l0.7-79c0-1.4,1.2-2.6,2.6-2.6c1.4,0,2.6,1.2,2.6,2.6l0.7,79l0.1,9.9
			l0,4.9l0,2.5l0.1,2.2c0.5,5.8,3.1,11.3,7.2,15.4c4.1,4.1,9.6,6.6,15.3,7.1l2.1,0.1l2.5,0l4.9,0l9.9-0.1c0.8,0,1.6,0,2.5,0
			c0.9,0.1,1.9,0.1,2.9,0.2c1.9,0.2,3.8,0.6,5.6,1.2c3.6,1.2,7,3.1,9.9,5.7c5.7,5.1,9.3,12.6,9.4,20.3c0.3,7.7-3.1,15.5-8.6,20.8
			c-5.5,5.3-13.3,8.3-20.8,8.2l-79,0.5l-158.1,0.8l-39.5,0.2l-2.5,0c-0.4,0-1,0-1.5,0c-0.5,0-1.1,0-1.6-0.1
			c-2.2-0.2-4.3-0.8-6.3-1.6c-4-1.7-7.5-4.5-10.1-8.1c-2.5-3.6-4-7.9-4.2-12.2c-0.1-1.2-0.1-1.9-0.1-2.8l0-2.5v-4.9
			c0-4.2,1.1-8.7,3.4-12.4c2.2-3.7,5.7-6.8,9.5-8.7c3.8-1.9,7.5-2.8,10.5-3.6c3.1-0.8,5.7-1.6,7.4-2.8c0.4-0.3,0.9-0.6,1.2-1
			l0.6-0.5l0.5-0.6c0.4-0.4,0.7-0.9,1-1.4c0.2-0.3,0.3-0.4,0.5-0.8l0.5-1c1.4-2.7,2.5-5.5,3.5-8.4c2-5.8,3.3-11.9,4.3-18.2
			c2-12.6,2.8-25.8,5.2-39.3c1.2-6.7,3-13.5,5.5-20c2.5-6.5,5.7-12.8,9.7-18.7c4-5.8,8.9-11.2,14.7-15.6c5.7-4.4,12.2-7.8,19.1-10
			c6.9-2.2,14-3.2,21.1-3.2l19.8,0.1l79,0.3l39.5,0.1l19.6,0c2.7-0.1,5.3-0.5,7.4-1.7c2.1-1.1,3.7-2.8,4.9-5
			c2.4-4.4,2.8-10.6,2.1-16.5c-0.8-6-2.5-11.9-5.3-17.2c-5.8-11.1-14-21.1-23.5-29.5c-4.7-4.2-9.9-8-15.3-11.3
			c-5.3-3.3-11.1-6-17-8.2c-12-4.4-24.7-7.3-37.4-8.2c-12.8-1-25.7-0.1-38.3,2.5c-12.6,2.6-24.8,7.1-36.3,12.9
			c-5.7,3-11.3,6.2-16.7,9.8c-5.4,3.6-10.5,7.6-15.7,11.7L609.3,94c-1.1,0.9-2.8,0.7-3.7-0.5C604.7,92.4,604.9,90.7,606,89.9z"/>
		<path class="st12" d="M157.9,844.8l4.2-10.2l2.1-5.1l2.5-4.9l5-9.9l5.7-9.5l2.9-4.8l3.2-4.6c2.1-3,4.2-6.1,6.3-9.1l6.9-8.7
			c1.2-1.4,2.3-2.9,3.5-4.3l3.7-4.1c2.5-2.7,4.9-5.5,7.5-8.2l7.9-7.8c2.6-2.7,5.3-5.1,8.1-7.5c2.8-2.4,5.5-5,8.3-7.3
			c5.8-4.6,11.4-9.4,17.4-13.7c3-2.2,5.9-4.4,8.9-6.5l9.2-6.2c49.4-32.3,104.2-55.2,160.3-72.1c14-4.2,28.2-8.1,42.4-11.6
			c14.2-3.6,28.5-6.8,42.8-9.7c14.3-3,28.7-5.7,42.9-8.6c14.3-2.9,28.9-5.6,43.6-7.1c7.3-0.8,14.8-1.4,22.4-1.3
			c7.6,0.2,15.4,0.9,22.9,3.7l2.8,1.1c0.9,0.4,1.8,0.9,2.7,1.4c1.8,0.9,3.5,2.1,5.2,3.3c3.2,2.6,6.1,5.6,8.2,9.3
			c2.1,3.6,3.5,7.6,4.2,11.5c0.8,3.9,1,7.8,1,11.6c0,7.6-1,15-1.8,22.2c-0.2,1.8-0.4,3.6-0.5,5.3l-0.4,5.4l-0.8,10.9
			c-1.1,14.5-2,29-1.9,43.5c0,1.4-1.2,2.6-2.6,2.6c-1.4,0-2.6-1.1-2.6-2.5c-0.5-14.7,0-29.4,0.6-43.9l0.5-10.9l0.3-5.5
			c0.1-1.9,0.2-3.7,0.4-5.6c0.6-7.3,1.4-14.5,1.3-21.4c-0.1-6.9-1.3-13.7-4.5-19c-1.6-2.6-3.9-4.9-6.4-6.8c-1.3-0.8-2.6-1.8-4.1-2.5
			c-0.7-0.3-1.4-0.8-2.2-1l-2.3-0.9c-6.2-2.2-13.2-2.7-20.1-2.7c-7,0-14.1,0.8-21.2,1.7c-14.3,1.7-28.3,4.7-42.6,7.8
			c-14.3,3.2-28.5,6.1-42.7,9.3c-14.2,3.2-28.3,6.6-42.3,10.2c-14.1,3.6-28,7.4-41.9,11.5c-27.7,8.3-55.2,17.6-81.8,28.9
			c-13.3,5.8-26.4,11.7-39.2,18.4c-6.5,3.2-12.7,6.8-19,10.3c-3.1,1.8-6.2,3.7-9.3,5.5c-3.1,1.8-6.2,3.7-9.2,5.7l-9.1,5.9
			c-3,2-5.9,4.1-8.8,6.2c-6,4-11.5,8.6-17.2,13c-2.8,2.2-5.5,4.7-8.2,7c-2.7,2.3-5.5,4.7-8,7.2l-7.8,7.4c-2.5,2.5-4.9,5.2-7.4,7.8
			l-3.7,3.9c-1.2,1.3-2.3,2.7-3.5,4.1l-6.9,8.3c-2.2,2.9-4.3,5.8-6.4,8.7l-3.2,4.3l-2.9,4.5l-5.8,9.1l-5.1,9.5l-2.6,4.8l-2.2,4.9
			l-4.4,9.9l-0.1,0.2c-0.6,1.3-2.1,1.9-3.4,1.3C157.9,847.6,157.3,846.1,157.9,844.8z"/>
		<path class="st12" d="M645.2,168l0.3,65.3c0,1.3,0,2.8,0,4c0.1,1.2,0,2.5,0.3,3.7c0.2,1.2,0.4,2.5,0.7,3.7
			c0.2,0.6,0.3,1.2,0.5,1.8l0.6,1.8c1.7,4.7,4.6,8.9,8.2,12.3c3.6,3.4,8,6,12.8,7.2l1.8,0.5c0.6,0.1,1.2,0.2,1.8,0.3
			c1.2,0.2,2.4,0.3,3.7,0.3c1.2,0.1,2.6,0,4,0l4.1,0l2,0l1.9-0.1c1.2,0,2.4-0.2,3.7-0.4c1.2-0.1,2.4-0.6,3.6-0.9
			c1.2-0.4,2.3-0.8,3.4-1.3c4.5-2,8.5-5.1,11.6-8.9c3.1-3.8,5.3-8.4,6.4-13.1c0.4-1.2,0.4-2.4,0.6-3.6c0.2-1.2,0.1-2.4,0.2-3.7
			l0-8.2l-0.2-32.7l0-8.2l0-2l0.1-2.2c0-1.5,0.2-3,0.5-4.5c0.9-6,3.4-11.7,7-16.5c7.1-9.8,19.1-15.8,31.2-15.7
			c6,0,12.2,1.5,17.5,4.4c2.7,1.4,5.2,3.2,7.4,5.2c2.3,2,4.4,4.3,6.1,6.8c3.5,5,5.6,10.9,6.4,16.9c0.4,3,0.4,6.1,0.4,8.7l0,8.2
			c0.1,10.8,0,22-1.4,33.1c-1.4,11.1-4,22.2-8.8,32.6c-4.7,10.5-11.9,19.7-19.7,27.7c-7.8,8-16.3,15.1-24.4,22.2
			c-8.2,7.2-16.6,14.3-25,21.2c-16.9,13.9-34.4,27.1-52.5,39.5c-18.1,12.3-36.9,23.7-56,34.4c-4.8,2.7-9.6,5.3-14.4,7.9l-7.2,3.9
			c-2.4,1.3-4.6,2.5-6.9,3.9c-4.5,2.7-8.7,5.7-12.7,9c-4,3.3-7.6,6.9-10.8,10.8c-6.5,7.8-10.8,17.1-12.6,26.9
			c-0.2,1.2-0.3,2.5-0.5,3.7c-0.2,1.2-0.2,2.5-0.3,3.7c0,1.3-0.1,2.5-0.1,3.8l0.1,3.8c0.3,5,1.3,10,2.8,14.8
			c3,9.6,8.5,18.3,15.7,25.4c7.2,7,16,12.3,25.6,15.2c9.6,2.9,19.8,3.4,29.6,1.4c4.9-1,9.5-2.7,14.7-4.7c5.1-1.9,10.1-3.9,15.2-5.8
			c10.1-4,20-8.1,29.9-12.5c9.9-4.4,19.6-9,29.2-13.8c19.1-9.8,37.8-20.6,54.4-33.8l3.1-2.5l3-2.6c2-1.7,3.9-3.4,6-5.3l6.1-5.5
			l6.3-5.4c8.5-7.1,17.3-13.9,26.8-20c2.3-1.6,4.9-2.9,7.3-4.4c1.2-0.7,2.5-1.3,3.8-2c1.3-0.7,2.5-1.3,3.9-1.9
			c5.2-2.5,10.8-4.4,16.8-5.6c5.9-1.1,12.4-1.3,18.6,0.3c6.2,1.5,12,4.7,16.6,8.5c4.7,3.9,8.6,8.3,12.1,12.9c1.7,2.3,3.3,4.6,4.9,7
			l2.3,3.5c0.7,1.2,1.5,2.3,2.2,3.7c3.1,5.4,5,11.3,6,17.2c1,5.9,1.1,11.8,0.8,17.6c-0.8,11.6-3.5,22.6-6.9,33.3
			c-1.7,5.3-3.7,10.6-6,15.8c-1.2,2.6-2.4,5.2-3.7,7.7c-1.4,2.6-2.9,5.1-4.5,7.5c-3.2,4.9-7,9.3-10.9,13.4c-3.9,4.1-8,7.8-12.2,11.5
			c-8.4,7.3-17.2,14-26.1,20.4c-9,6.4-18,12.5-27.1,18.6c-9.1,6.1-18.2,12-27.5,17.9c-37,23.4-75.4,44.6-115.5,62.3
			c-20.1,8.8-40.6,16.6-61.5,23.3c-21,6.7-42.2,11.5-62.6,18.3c-41,13.9-81.1,30.6-118.6,52.2c-9.5,5.2-18.5,11.2-27.7,16.8
			l-13.4,9.2c-2.2,1.5-4.5,3-6.6,4.6l-6.4,4.9c-17.4,12.8-33.5,27.3-48.8,42.5l-11.2,11.7c-3.6,4-7.1,8.2-10.6,12.2l-5.3,6.1l-5,6.4
			l-9.9,12.9l-9.1,13.4c-1.5,2.2-3.1,4.4-4.5,6.7l-4.2,7c-2.8,4.6-5.6,9.2-8.3,13.9l-7.6,14.3l0,0.1c-0.7,1.3-2.3,1.8-3.5,1.1
			c-1.3-0.7-1.8-2.2-1.1-3.5l7.5-14.6c2.7-4.8,5.5-9.5,8.3-14.2l4.2-7.1c1.4-2.3,3-4.6,4.5-6.9l9.1-13.7l9.9-13.2l5-6.6l5.3-6.3
			c3.6-4.2,7-8.4,10.7-12.5l11.3-12c15.4-15.6,31.6-30.5,49.2-43.6l6.5-5c2.2-1.6,4.5-3.2,6.7-4.8c4.5-3.1,9-6.3,13.5-9.4
			c9.3-5.8,18.4-12,28-17.3c37.9-22.2,78.4-39.4,119.7-53.7c20.9-7.1,42.1-12.1,62.6-18.8c20.5-6.8,40.7-14.6,60.4-23.4
			c39.5-17.7,77.3-39.1,113.8-62.4c9.1-5.8,18.2-11.8,27.2-17.9c9-6.1,18-12.2,26.7-18.5c8.7-6.3,17.2-12.8,25.2-19.9
			c7.9-7.1,15.6-14.5,21.1-22.9c1.4-2.1,2.7-4.3,3.8-6.5c1.2-2.3,2.3-4.6,3.4-7c2.1-4.8,3.9-9.7,5.5-14.7
			c3.1-10.1,5.6-20.4,6.2-30.6c0.6-10.1-0.7-20.3-5.4-28.4c-0.5-1-1.3-2.2-2-3.3l-2.1-3.3c-1.5-2.2-2.9-4.3-4.5-6.4
			c-3.1-4.1-6.4-7.9-10.2-10.9c-3.7-3.1-7.8-5.3-12.1-6.3c-4.4-1.1-9-1.1-13.7-0.2c-4.7,0.9-9.5,2.5-14.1,4.7
			c-1.2,0.5-2.3,1.1-3.5,1.7c-1.1,0.6-2.3,1.2-3.4,1.8c-2.2,1.4-4.5,2.6-6.7,4c-8.9,5.6-17.3,12.2-25.5,19.1l-6.1,5.2l-6,5.4
			c-1.9,1.8-4.1,3.6-6.2,5.5l-3.2,2.8l-3.3,2.6c-17.5,14-36.8,25-56.4,35c-9.8,4.9-19.8,9.5-29.9,13.9c-10.1,4.3-20.2,8.5-30.4,12.5
			c-5.1,1.9-10.2,3.9-15.4,5.8c-2.6,0.9-5,1.9-7.9,2.8l-2.1,0.7l-2.1,0.6c-1.4,0.4-2.8,0.7-4.3,1c-11.6,2.3-23.7,1.7-34.9-1.8
			c-11.2-3.5-21.6-9.7-29.9-18c-8.3-8.2-14.7-18.6-18.2-29.8c-1.8-5.6-2.8-11.4-3.2-17.3l-0.1-4.4c0-1.4,0.1-2.9,0.1-4.4
			c0.1-1.5,0.1-2.9,0.4-4.4c0.2-1.5,0.3-2.9,0.6-4.4c2.1-11.6,7.4-22.6,14.9-31.5c3.7-4.5,7.8-8.6,12.3-12.2c4.4-3.6,9.1-6.9,14-9.8
			c2.4-1.5,5-2.8,7.4-4.1l7.2-3.8c4.8-2.6,9.5-5.1,14.3-7.8c18.9-10.5,37.5-21.6,55.5-33.7c17.9-12,35.2-25.1,52.1-38.7
			c8.4-6.8,16.7-13.8,24.9-20.9c8.3-7.2,16.6-14,24-21.6c7.4-7.5,13.9-15.8,18.1-25.1c4.4-9.4,6.9-19.7,8.3-30.1
			c1.4-10.5,1.5-21.1,1.5-32.1l0-8.2c0-2.8,0-5.2-0.3-7.6c-0.6-4.8-2.3-9.5-5-13.4c-2.7-3.9-6.5-7.2-10.7-9.5
			c-4.2-2.3-9-3.5-13.8-3.5c-9.7-0.1-19.3,4.6-25.1,12.5c-2.9,3.9-4.9,8.4-5.7,13.2c-0.2,1.2-0.4,2.4-0.4,3.6l-0.1,1.8l0,2l0,8.2
			l-0.2,32.7l0,8.2c-0.1,1.5-0.1,3-0.3,4.5c-0.3,1.5-0.4,3-0.8,4.4c-1.4,5.8-4.1,11.3-8,15.8c-3.8,4.6-8.7,8.2-14.1,10.7
			c-1.4,0.6-2.8,1.1-4.2,1.5c-1.5,0.3-2.9,0.9-4.4,1c-1.5,0.2-2.9,0.5-4.4,0.5l-2.2,0.1l-2,0l-4.1,0c-1.4,0-2.6,0-4.2-0.1
			c-1.5-0.1-3-0.1-4.4-0.4c-0.7-0.1-1.5-0.2-2.2-0.4l-2.2-0.6c-5.7-1.6-11-4.7-15.3-8.8c-4.3-4.1-7.6-9.1-9.6-14.7l-0.7-2.1
			c-0.2-0.7-0.4-1.4-0.5-2.1c-0.4-1.4-0.6-2.9-0.8-4.3c-0.3-1.5-0.2-2.9-0.3-4.4c0-1.4,0-2.7,0-4.1l0.3-65.3c0-1.4,1.2-2.6,2.6-2.6
			C644,165.4,645.1,166.6,645.2,168z"/>
		<path class="st12" d="M503.3,972.1l23-179.9l23.5-179.8l23.5-179.8l5.9-45l2.9-22.5l1.5-11.2c0.5-3.8,0.8-7.3,1.7-11.6
			c1.6-8.3,5.4-16.1,10.5-22.7c5.3-6.5,12-12,19.7-15.5l2.9-1.3c1-0.4,2-0.7,3-1c2-0.7,4.1-1.1,6.1-1.6c2.1-0.4,4.2-0.7,6.3-0.9
			c2.1-0.1,4.3-0.2,6.1-0.2l22.7,0l90.7,0l45.3,0l5.7,0c2.1,0.1,4.2,0.1,6.3,0.4c2.1,0.3,4.2,0.6,6.2,1.1c1,0.3,2.1,0.5,3.1,0.8l3,1
			c8,2.8,15.1,7.8,20.9,13.8c5.7,6.2,10,13.7,12.4,21.7l0.8,3.1c0.3,1,0.5,2,0.6,3.1l0.5,3.1c0.1,1,0.2,1.9,0.3,2.9l1.1,11.3
			l4.3,45.1l8.6,90.3c11.3,120.4,22.9,240.7,33.9,361.1c0.1,1.4-0.9,2.7-2.4,2.8c-1.4,0.1-2.7-0.9-2.8-2.3
			c-13-120.2-25.5-240.4-38.2-360.7l-9.4-90.2l-4.7-45.1l-1.2-11.3c-0.1-0.9-0.2-1.9-0.3-2.8l-0.4-2.5c-0.1-0.8-0.3-1.7-0.5-2.5
			l-0.6-2.4c-2-6.4-5.4-12.4-10-17.2c-4.7-4.8-10.3-8.7-16.7-10.9l-2.4-0.8c-0.8-0.3-1.6-0.4-2.4-0.6c-1.6-0.5-3.3-0.6-4.9-0.9
			c-1.7-0.3-3.3-0.2-5-0.3l-5.7,0l-45.3,0l-90.7,0l-22.7,0c-2,0-3.5,0.1-5.2,0.2c-1.7,0.2-3.3,0.4-4.9,0.7c-1.6,0.4-3.3,0.7-4.8,1.3
			c-0.8,0.3-1.6,0.5-2.4,0.8l-2.3,1c-6.1,2.7-11.4,7-15.7,12.2c-4.1,5.3-7.2,11.4-8.5,17.9c-0.7,3.1-1.1,7.1-1.6,10.8l-1.6,11.2
			l-3.1,22.5l-6.2,44.9l-24.9,179.6l-24.9,179.6l-25.4,179.6c-0.2,1.4-1.5,2.4-3,2.2C504.1,974.8,503.1,973.5,503.3,972.1z"/>
		<path class="st12" d="M911.2,680.1c-13,15.8-26.9,30.5-41.4,44.8c-14.5,14.2-29.6,27.8-45.3,40.8c-31.3,25.9-64.9,49.3-100.6,69
			l-13.5,7.2l-13.8,6.6c-4.6,2.3-9.3,4.2-14,6.2c-4.7,2-9.4,4.1-14.2,5.8c-19,7.6-38.6,13.5-58.5,18.3l-15,3.3l-15.1,2.6
			c-5,1-10.1,1.5-15.2,2l-7.6,0.9l-3.8,0.4l-3.8,0.2l-15.3,0.9c-5.1,0.3-10.2,0-15.3,0l-7.6-0.1c-2.5-0.1-5.1-0.3-7.6-0.5l-15.2-1.1
			c-1.4-0.1-2.5-1.4-2.4-2.8c0.1-1.4,1.3-2.5,2.7-2.4l0.2,0l15,0.4c2.5,0,5,0.2,7.5,0.1l7.5-0.3l7.5-0.2c2.5-0.1,5-0.1,7.5-0.3
			l14.9-1.3l3.7-0.3l3.7-0.5l7.4-1.1c4.9-0.7,9.9-1.4,14.8-2.5l14.7-3l14.5-3.7c4.9-1.1,9.6-2.7,14.4-4.2c4.8-1.5,9.6-2.8,14.3-4.6
			l14.1-5l13.9-5.6c18.4-7.8,36.5-16.3,54.1-25.8c17.6-9.6,34.8-19.7,51.6-30.8c16.7-11,32.9-22.9,48.7-35.3
			c15.8-12.4,31.1-25.4,45.9-39c14.8-13.6,29.3-27.7,42.6-42.6l0.1-0.1c1-1.1,2.6-1.2,3.7-0.2C912,677.5,912.1,679.1,911.2,680.1z"
			/>
		<path class="st12" d="M97.7,586.6c8.9-20.9,20.1-40.9,33.3-59.5l5.1-6.9c1.7-2.3,3.4-4.6,5.2-6.8l10.9-13.2l11.6-12.6
			c1.9-2.1,4-4.1,6-6.1l6.1-6c16.5-15.7,34.3-30,52.8-43.3c18.5-13.2,37.7-25.4,57.4-36.7c19.6-11.4,39.8-21.7,60.2-31.5
			c20.4-9.8,41.1-19,62.1-27.5c10.5-4.3,21.1-8.4,31.6-12.4c10.5-4,21.1-8,31.8-11.8c10.7-3.8,21.4-7.5,32.3-10.6
			c10.9-3.1,22-5.9,33.1-8c1.4-0.3,2.8,0.7,3.1,2.1c0.3,1.4-0.6,2.7-2,3c-21.8,5-43,12.5-63.9,20.6c-10.5,4.1-20.9,8.4-31.3,12.7
			c-10.4,4.3-20.8,8.6-31.1,13.1c-41.1,18.1-81.2,38.4-120.3,60.4c-19.5,11.1-38.7,22.6-57.1,35.3c-18.4,12.7-36,26.5-52.5,41.5
			l-6.1,5.7c-2,1.9-4.1,3.7-6,5.8l-11.7,12l-11,12.6c-1.9,2.1-3.6,4.3-5.3,6.5l-5.1,6.6c-13.5,17.7-25.2,36.9-34.7,57.1l0,0
			c-0.6,1.3-2.2,1.9-3.5,1.3C97.7,589.4,97.1,587.9,97.7,586.6z"/>
		<path class="st12" d="M440.2,611c0.4-2.7,0.9-5.1,1.7-7.5c0.7-2.5,1.5-4.8,2.3-7.2c1-2.3,1.9-4.7,3-7c1.2-2.2,2.2-4.6,3.5-6.8
			c2.5-4.4,5.4-8.7,8.5-12.7l4.9-5.9c1.8-1.8,3.6-3.7,5.4-5.5c1.8-1.9,3.9-3.3,5.9-5c1-0.8,2-1.6,3.1-2.3c1-0.8,2.2-1.4,3.2-2.1
			l6.6-4c2.3-1.2,4.6-2.2,6.9-3.3l3.4-1.6c1.1-0.5,2.4-0.9,3.5-1.4c2.4-0.9,4.8-1.7,7.1-2.5c0.6-0.2,1.2-0.4,1.8-0.6l1.8-0.5
			l3.7-0.9c2.4-0.6,4.9-1.1,7.3-1.7c1.4-0.3,2.8,0.6,3.1,2c0.3,1.2-0.4,2.4-1.5,2.9l-0.2,0.1c-2.2,1-4.4,1.9-6.6,2.9l-3.3,1.4
			l-1.6,0.7c-0.5,0.2-1.1,0.5-1.6,0.8c-2.1,1.1-4.2,2.2-6.3,3.3c-1,0.6-2.1,1-3.1,1.6l-3,1.9l-5.9,3.7l-5.6,4.2
			c-1.9,1.3-3.6,2.9-5.4,4.4l-2.7,2.2l-1.4,1.1l-1.3,1.2c-1.7,1.6-3.4,3.1-5.2,4.7l-4.8,5c-3.1,3.5-6.1,7.1-8.8,10.9
			c-2.7,3.8-5.2,7.8-7.5,11.9c-2.2,4.1-4.3,8.5-5.9,12.7l-0.1,0.2c-0.5,1.4-2,2-3.4,1.5C440.7,613.4,440,612.2,440.2,611z"/>
	</g>
</g>
</svg>
