<svg xmlns="http://www.w3.org/2000/svg" xmlns:xlink="http://www.w3.org/1999/xlink" width="40" height="40" viewBox="0 0 40 40">
  <defs>
    <clipPath id="clip-path">
      <rect id="Rectangle_261" data-name="Rectangle 261" width="40" height="40" transform="translate(-0.327)" fill="#fff"/>
    </clipPath>
  </defs>
  <g id="Lighthouse" transform="translate(0.327)" clip-path="url(#clip-path)">
    <g id="light_house" data-name="light house" transform="translate(3.479 0.305)">
      <path id="Path_1022" data-name="Path 1022" d="M36.912,31.511H32.341V27.766a.756.756,0,0,0-.762-.749H29.293L28.92,13.536h.373a.749.749,0,1,0,0-1.5H12.532a.749.749,0,1,0,0,1.5h.4l-.4,13.481H10.246a.756.756,0,0,0-.762.749v3.745H4.913a.749.749,0,1,0,0,1.5h32a.749.749,0,1,0,0-1.5Zm-19.047-7.49a3.048,3.048,0,0,1,6.1,0v3h-6.1Z" transform="translate(-4.149 6.686)"/>
      <path id="Path_1023" data-name="Path 1023" d="M8.649,9.9h1.524l-.251,8.988H25.685L25.41,9.9h1.524a.761.761,0,0,0,.723-.512.742.742,0,0,0-.266-.836L18.249,1.81a.772.772,0,0,0-.914,0L8.192,8.551a.742.742,0,0,0-.266.836A.761.761,0,0,0,8.649,9.9Zm9.143,7.49a3,3,0,1,1,3.048-3A3.022,3.022,0,0,1,17.791,17.389Z" transform="translate(-1.027 -1.66)"/>
      <path id="Path_1024" data-name="Path 1024" d="M17.888,9.048a.761.761,0,0,0,.724.509.968.968,0,0,0,.244-.037l6.857-2.247a.748.748,0,0,0,.48-.951.767.767,0,0,0-.968-.472L18.368,8.1a.758.758,0,0,0-.441.378A.737.737,0,0,0,17.888,9.048Z" transform="translate(7.295 1.677)"/>
      <path id="Path_1025" data-name="Path 1025" d="M25.713,11.832,18.856,9.586a.767.767,0,0,0-.968.472.748.748,0,0,0,.48.951l6.857,2.247a.968.968,0,0,0,.244.037.762.762,0,0,0,.762-.509.738.738,0,0,0-.053-.584A.76.76,0,0,0,25.713,11.832Z" transform="translate(7.295 4.682)"/>
      <path id="Path_1026" data-name="Path 1026" d="M4.67,7.31l6.857,2.247a.969.969,0,0,0,.244,0,.761.761,0,0,0,.724-.509.737.737,0,0,0-.039-.574.758.758,0,0,0-.441-.378L5.158,5.85a.767.767,0,0,0-.968.472.748.748,0,0,0,.48.951Z" transform="translate(-4.15 1.677)"/>
      <path id="Path_1027" data-name="Path 1027" d="M4.914,13.293a.968.968,0,0,0,.244-.037l6.857-2.247a.748.748,0,0,0,.48-.951.767.767,0,0,0-.968-.472L4.67,11.832a.758.758,0,0,0-.441.378.737.737,0,0,0-.039.574.761.761,0,0,0,.724.509Z" transform="translate(-4.15 4.682)"/>
    </g>
  </g>
</svg>
